<?xml version="1.0" encoding="UTF-8"?>
<svg class="" width="122.81" height="118.81" viewBox="0 0 90 91.617" xmlns="http://www.w3.org/2000/svg">
<g transform="matrix(1.0234 0 0 1.0234 -5.8038 -4.7228)" fill="#fff" featurekey="Df7oLJ-0">
<path d="m37.924 91.389c3.71-1.492 7.809-2.247 12.201-2.247 6.031 0 11.101 1.409 13.61 2.26-1.532-18.562 3.841-27.24 5.979-29.906l-6.134-5.089c-0.385 1.488-1.132 3.089-1.582 3.979-1.164 2.305-3.527 6.169-6.271 6.169-0.602 0-1.169-0.191-1.683-0.559-3.203-2.32-2.59-8.402-2.108-11.192h-4.757c0.834 5.246 1.607 10.605-3.775 11.893-0.275 0.065-0.559 0.097-0.839 0.097-3.812 0-6.869-6.201-8.029-8.929l-4.902 2.651c6.787 7.425 8.055 25.318 8.29 30.873m-16.985-49.972s-1.339-4.694-11.321-2.759c0 0-2.151-11.68 12.173-14.546 0 0-0.014-11.071 13.998-12.29 0 0 7.431-0.122 12.79 6.823 0 0-1.226-5.843-10.97-8.159 0 0 11.701-13.525 24.254 0.481 0 0 13.579-0.814 16.02 11.368 0 0-11.133-1.121-16.387 8.496 0 0 11.942-13.037 22.901-4.022 0 0 7.68 3.651 5.118 13.646 0 0 10.114 7.55 2.075 19.247 0 0-7.802 9.747-16.692 0.366 0 0-1.953 5.239 8.407 6.336 0 0-3.041 10.872-16.674 8.094-0.92 4.591-1.349 10.639-0.553 18.427 0.04 0.389-0.129 0.763-0.443 0.994-0.312 0.232-0.721 0.277-1.081 0.129-0.062-0.028-6.442-2.711-14.43-2.711-4.672 0-8.972 0.906-12.779 2.693-0.149 0.068-0.308 0.108-0.467 0.108-0.203 0-0.403-0.062-0.582-0.174-0.315-0.194-0.512-0.536-0.514-0.911-3e-3 -0.155-0.18-9.575-2.23-18.423-0.496 0.101-0.765 0.162-0.765 0.162s-13.411 2.905-17.359-10.061c0 0-10.43-1.562-10.728-14.228-0.3-12.666 11.324-12.739 16.239-9.086" xmlns="http://www.w3.org/2000/svg"/>
</g>
</svg>
